<?xml version="1.0" encoding="UTF-8"?>
<svg id="Layer_1" data-name="Layer 1" xmlns="http://www.w3.org/2000/svg" viewBox="0 0 1080 1080">
  <defs>
    <style>
      .cls-1 {
        fill: #eee;
        font-family: LostaMasta-Regular, 'Losta Masta';
        font-size: 160.46px;
      }

      .cls-2 {
        fill: #0d182e;
      }
    </style>
  </defs>
  <g>
    <path class="cls-2" d="m432.71,667.83c-4.15-1.53-8.6-1.11-12.9-2.25-9.86-2.62-18.43-7.32-26.48-13.47-7.9-6.03-13.38-13.85-17.57-22.58-3.89-8.09-5.83-16.83-6.08-25.82-.23-8.24-.46-16.52.06-24.73.63-9.97,1.65-19.92,3.58-29.79,1.68-8.6,3.43-17.15,5.94-25.54,3.51-11.75,8.78-22.69,15.43-32.98,5.9-9.15,13.37-16.77,22.59-22.5,9.24-5.74,19.33-9.14,30.22-10.42,7.21-.85,14.13-1.31,21.08,1.61,5.53,2.32,9.98,6.22,15.02,9.23,6.92,4.14,13.48,8.54,21.31,11.36,6.84,2.47,13.37,5.72,20.69,6.66,6.38.82,12.7,1.26,19.25,1.08,13.23-.36,24.99-5.06,36.59-10.16,7.09-3.12,13.37-8.1,19.95-12.34,7.83-5.05,15.7-9.42,25.68-8.24,17.16,2.04,32.81,7.15,45.74,19.3,12.37,11.63,20.02,26.05,25.78,41.67,4.46,12.1,6.87,24.71,8.83,37.43,1.38,8.95,2.08,17.93,2.54,26.97.28,5.4.79,10.8.57,16.2-.66,16.19-4.14,31.61-14.75,44.4-8.28,9.97-18.72,16.99-31.2,21.09-5.36,1.76-10.98,2.01-16.27,3.81h-215.58Z"/>
    <path class="cls-2" d="m635.6,357.64c1.04,53.22-43.29,93.06-85.33,97.8-29.58,3.33-55.75-4.19-77.98-23.99-24.44-21.77-35.43-49.27-33.17-81.94.97-13.91,4.43-27.24,11.64-39.25,19.31-32.17,47.32-50.56,85.33-51.06,27.53-.36,51.64,9.27,71.25,28.99,19.09,19.19,27.96,42.61,28.25,69.46Z"/>
  </g>
  <text class="cls-1" transform="translate(194.53 674.39)"><tspan x="0" y="0">About Me</tspan></text>
</svg>