<?xml version="1.0" encoding="utf-8"?>
<!-- Generator: Adobe Illustrator 26.0.1, SVG Export Plug-In . SVG Version: 6.00 Build 0)  -->
<svg version="1.1" id="Layer_1" xmlns="http://www.w3.org/2000/svg" xmlns:xlink="http://www.w3.org/1999/xlink" x="0px" y="0px"
	 viewBox="0 0 1080 1080" style="enable-background:new 0 0 1080 1080;" xml:space="preserve">
<style type="text/css">
	.st0{fill:#14243F;}
	.st1{fill:#EEEEEE;}
	.st2{font-family:'ArialMT';}
	.st3{font-size:160.46px;}
</style>
<g>
	<path class="st0" d="M432.7,667.8c-4.1-1.5-8.6-1.1-12.9-2.2c-9.9-2.6-18.4-7.3-26.5-13.5c-7.9-6-13.4-13.8-17.6-22.6
		c-3.9-8.1-5.8-16.8-6.1-25.8c-0.2-8.2-0.5-16.5,0.1-24.7c0.6-10,1.6-19.9,3.6-29.8c1.7-8.6,3.4-17.2,5.9-25.5
		c3.5-11.8,8.8-22.7,15.4-33c5.9-9.1,13.4-16.8,22.6-22.5c9.2-5.7,19.3-9.1,30.2-10.4c7.2-0.9,14.1-1.3,21.1,1.6
		c5.5,2.3,10,6.2,15,9.2c6.9,4.1,13.5,8.5,21.3,11.4c6.8,2.5,13.4,5.7,20.7,6.7c6.4,0.8,12.7,1.3,19.2,1.1
		c13.2-0.4,25-5.1,36.6-10.2c7.1-3.1,13.4-8.1,20-12.3c7.8-5,15.7-9.4,25.7-8.2c17.2,2,32.8,7.1,45.7,19.3
		c12.4,11.6,20,26,25.8,41.7c4.5,12.1,6.9,24.7,8.8,37.4c1.4,9,2.1,17.9,2.5,27c0.3,5.4,0.8,10.8,0.6,16.2
		c-0.7,16.2-4.1,31.6-14.8,44.4c-8.3,10-18.7,17-31.2,21.1c-5.4,1.8-11,2-16.3,3.8L432.7,667.8L432.7,667.8z"/>
	<path class="st0" d="M635.6,357.6c1,53.2-43.3,93.1-85.3,97.8c-29.6,3.3-55.8-4.2-78-24c-24.4-21.8-35.4-49.3-33.2-81.9
		c1-13.9,4.4-27.2,11.6-39.2c19.3-32.2,47.3-50.6,85.3-51.1c27.5-0.4,51.6,9.3,71.2,29C626.4,307.4,635.3,330.8,635.6,357.6
		L635.6,357.6z"/>
</g>
<text transform="matrix(1 0 0 1 194.53 674.39)" class="st1 st2 st3">About Me</text>
</svg>
