<?xml version="1.0" encoding="UTF-8"?>
<svg id="Layer_5" data-name="Layer 5" xmlns="http://www.w3.org/2000/svg" viewBox="0 0 1080 1080">
  <defs>
    <style>
      .cls-1 {
        fill: #eee;
        font-family: LostaMasta-Regular, 'Losta Masta';
        font-size: 160.46px;
      }

      .cls-2 {
        fill: #0d182e;
      }
    </style>
  </defs>
  <g>
    <path class="cls-2" d="m350.32,411.44c3.95.26,6.77,3.05,10,4.76,12.4,6.58,24.58,13.57,36.82,20.45,13.82,7.77,27.42,15.96,41.48,23.28,12.65,6.59,24.52,14.63,37.61,20.38,2.8,1.23,4.69,3.65,7.46,4.95,13.33,6.26,25.51,14.62,38.62,21.26,4.63,2.34,8.79,5.38,13.43,7.57,2.72,1.28,5.85.79,8.49-.66,14.92-8.17,29.77-16.45,44.66-24.67,3.12-1.72,6.31-3.31,9.45-4.98,1.77-.94,3.48-1.95,4.51-3.78.22-.38.48-.97.8-1.03,8.77-1.67,15.5-7.53,23.14-11.43,12.22-6.24,24.01-13.34,36-20.04,19.52-10.9,39.06-21.78,58.59-32.67,2.57-1.43,5.14-2.84,7.76-4.29.8,1.44.46,2.68.46,3.85.02,54.31.07,108.62-.02,162.93-.02,15.01-7.57,26.14-20.52,30.64-3.88,1.35-7.9,1.71-11.99,1.71-105.04-.02-210.08-.19-315.12.17-14.8.05-28.45-10.11-31.05-23.95-.03-.15-.38-.25-.57-.37,0-58.03,0-116.06,0-174.09Z"/>
    <path class="cls-2" d="m350.32,384.77c2.29-1.92,2.44-5.01,4.02-7.34,5.17-7.6,12.43-11.76,21.35-13.45,3.03-.57,6.03-.55,9.06-.55,104.06,0,208.13-.06,312.19.07,12.86.02,23.5,4.88,29.55,17.13,3.2,6.49,2.98,6.81-3.32,10.32-3.73,2.08-7.33,4.48-10.97,6.69-3.98,2.41-8.47,4.17-12.61,6.48-23.92,13.31-47.82,26.63-71.75,39.93-6.8,3.78-13.62,7.58-20.21,11.61-6.76,4.14-14.06,7.22-20.7,11.65-4.37,2.92-9.68,4.74-14.01,7.92-4.72,3.45-10.25,5.34-15.17,8.54-5.29,3.43-11.39,6.09-17.2,8.94-1.41.69-2.35-.27-3.35-.76-6.19-3.04-11.86-7.03-18.35-9.56-4.79-1.87-8.46-5.76-13.19-7.93-5.34-2.44-9.9-6.48-15.94-7.62-2.13-.4-2.42-3.5-4.76-4.07-4.73-1.16-8.34-4.33-12.41-6.74-11.11-6.59-22.58-12.59-33.88-18.87-13.5-7.51-26.96-15.1-40.47-22.61-10.91-6.06-21.88-12.02-32.78-18.08-5.08-2.83-10.08-5.81-15.11-8.72,0-.99,0-1.98,0-2.96Z"/>
  </g>
  <text class="cls-1" transform="translate(262.88 674.39)"><tspan x="0" y="0">Contact</tspan></text>
</svg>