<?xml version="1.0" encoding="utf-8"?>
<!-- Generator: Adobe Illustrator 26.0.1, SVG Export Plug-In . SVG Version: 6.00 Build 0)  -->
<svg version="1.1" id="Layer_5" xmlns="http://www.w3.org/2000/svg" xmlns:xlink="http://www.w3.org/1999/xlink" x="0px" y="0px"
	 viewBox="0 0 1080 1080" style="enable-background:new 0 0 1080 1080;" xml:space="preserve">
<style type="text/css">
	.st0{fill:#14243F;}
	.st1{fill:#EEEEEE;}
	.st2{font-family:'ArialMT';}
	.st3{font-size:160.46px;}
</style>
<g>
	<path class="st0" d="M350.3,411.4c4,0.3,6.8,3,10,4.8c12.4,6.6,24.6,13.6,36.8,20.5c13.8,7.8,27.4,16,41.5,23.3
		c12.6,6.6,24.5,14.6,37.6,20.4c2.8,1.2,4.7,3.6,7.5,5c13.3,6.3,25.5,14.6,38.6,21.3c4.6,2.3,8.8,5.4,13.4,7.6
		c2.7,1.3,5.8,0.8,8.5-0.7c14.9-8.2,29.8-16.5,44.7-24.7c3.1-1.7,6.3-3.3,9.5-5c1.8-0.9,3.5-2,4.5-3.8c0.2-0.4,0.5-1,0.8-1
		c8.8-1.7,15.5-7.5,23.1-11.4c12.2-6.2,24-13.3,36-20c19.5-10.9,39.1-21.8,58.6-32.7c2.6-1.4,5.1-2.8,7.8-4.3
		c0.8,1.4,0.5,2.7,0.5,3.9c0,54.3,0.1,108.6,0,162.9c0,15-7.6,26.1-20.5,30.6c-3.9,1.3-7.9,1.7-12,1.7c-105,0-210.1-0.2-315.1,0.2
		c-14.8,0-28.5-10.1-31-24c0-0.2-0.4-0.2-0.6-0.4C350.3,527.5,350.3,469.5,350.3,411.4L350.3,411.4z"/>
	<path class="st0" d="M350.3,384.8c2.3-1.9,2.4-5,4-7.3c5.2-7.6,12.4-11.8,21.4-13.5c3-0.6,6-0.5,9.1-0.5
		c104.1,0,208.1-0.1,312.2,0.1c12.9,0,23.5,4.9,29.5,17.1c3.2,6.5,3,6.8-3.3,10.3c-3.7,2.1-7.3,4.5-11,6.7c-4,2.4-8.5,4.2-12.6,6.5
		c-23.9,13.3-47.8,26.6-71.8,39.9c-6.8,3.8-13.6,7.6-20.2,11.6c-6.8,4.1-14.1,7.2-20.7,11.6c-4.4,2.9-9.7,4.7-14,7.9
		c-4.7,3.5-10.2,5.3-15.2,8.5c-5.3,3.4-11.4,6.1-17.2,8.9c-1.4,0.7-2.3-0.3-3.3-0.8c-6.2-3-11.9-7-18.3-9.6
		c-4.8-1.9-8.5-5.8-13.2-7.9c-5.3-2.4-9.9-6.5-15.9-7.6c-2.1-0.4-2.4-3.5-4.8-4.1c-4.7-1.2-8.3-4.3-12.4-6.7
		c-11.1-6.6-22.6-12.6-33.9-18.9c-13.5-7.5-27-15.1-40.5-22.6c-10.9-6.1-21.9-12-32.8-18.1c-5.1-2.8-10.1-5.8-15.1-8.7
		C350.3,386.8,350.3,385.8,350.3,384.8L350.3,384.8z"/>
</g>
<text transform="matrix(1 0 0 1 262.88 674.39)" class="st1 st2 st3">Contact</text>
</svg>
