<?xml version="1.0" encoding="utf-8"?>
<!-- Generator: Adobe Illustrator 26.0.1, SVG Export Plug-In . SVG Version: 6.00 Build 0)  -->
<svg version="1.1" id="Layer_2_00000010298463591289642890000011689522385035250584_"
	 xmlns="http://www.w3.org/2000/svg" xmlns:xlink="http://www.w3.org/1999/xlink" x="0px" y="0px" viewBox="0 0 1080 1080"
	 style="enable-background:new 0 0 1080 1080;" xml:space="preserve">
<style type="text/css">
	.st0{fill:#14243F;}
	.st1{fill:#EEEEEE;}
	.st2{font-family:'ArialMT';}
	.st3{font-size:160.46px;}
</style>
<g>
	<path class="st0" d="M328.9,381c3.3-6.5,10.1-7.7,16-9.8c27.7-9.8,55.6-19.1,83.2-29.1c25.4-9.2,50.9-18.4,76.4-27.2
		c10.3-3.5,20.4-7.6,30.7-11.1c3.5-1.2,7.3-0.7,10.8,0.5c18.1,6.4,36.2,12.9,54.2,19.3c13.6,4.8,27.2,9.6,40.7,14.4
		c14.2,5,28.3,10.1,42.5,15.2c20.3,7.2,40.7,14,60.7,21.7c5,1.9,6.2,6,6.7,10c0.4,3.7-1.2,7.5-4.7,10c-4.3,3.1-9.4,4.3-14.2,6.1
		c-11.4,4.2-23,8-34.5,12.1c-15.7,5.6-31.4,11.3-47.2,17c-18.3,6.5-36.7,13-55,19.6c-12.3,4.4-24.7,8.8-37.1,13.2
		c-4,1.4-8,2.9-12,4.4c-4.2,1.6-8.4,1.8-12.6,0.3c-10.8-3.9-21.6-7.9-32.4-11.8c-13.5-4.8-27-9.4-40.4-14.1
		c-11.2-4-22.4-8.1-33.6-12.1c-13.5-4.8-27-9.4-40.4-14.1c-11-3.9-21.8-8-32.8-11.9c-4.5-1.6-9-3.1-13.5-4.6
		c-5-1.6-9.1-4.2-11.8-8.9L328.9,381L328.9,381z"/>
	<path class="st0" d="M416.1,451.7c12.1,4.4,23.9,9.1,35.9,13c14.1,4.5,27.7,10.3,41.9,14.6c9.5,2.9,18.8,6.5,28,10.3
		c11.7,4.8,23.2,4.8,34.8,0.2c18.5-7.3,37.5-13,56-20.1c16-6.2,32.4-11.6,48.6-17.4c1.9-0.7,3.1-0.7,3,1.9
		c-0.4,16.5-0.1,32.9-0.3,49.4c-0.1,12.2-7.1,18.6-15.9,24.5c-10.2,6.9-22,10.7-33.6,14.1c-10.8,3.2-22,4.9-33.3,6.4
		c-17.3,2.3-34.6,3.5-52,2.9c-10.7-0.3-21.5-1.4-32.2-2.9c-10.7-1.5-21.4-3.3-31.7-6.3c-10.7-3.1-21.4-6.7-31.1-12.6
		c-6.9-4.2-13.3-8.5-16.8-16.1c-1.1-2.4-2-5-1.9-7.7c0.7-17.4,0.1-34.9,0.3-52.3C415.9,453.2,416,452.7,416.1,451.7L416.1,451.7z"/>
	<path class="st0" d="M721.6,431.2v4.8c0,32.6,0,65.2-0.1,97.7c0,3.6,0.9,6,3.9,8.5c11.8,10,11,28.6-1.7,38.1
		c-2,1.5-2.2,2.8-2.2,4.6c0,18.6,0.1,37.1,0,55.7c0,5.9-1.9,10.8-7.9,13.7c-7.3,3.5-16.7-1.7-16.8-9.8c-0.1-19.4-0.1-38.8,0-58.2
		c0-2.6-0.6-4.2-3-6c-13.3-9.5-12.9-31.6,0.5-39.7c2-1.2,2.5-2.7,2.5-4.9c-0.1-30.8,0-61.6-0.2-92.4c0-2.7,0.9-3.8,3.1-4.5
		C707,436.3,714.1,433.8,721.6,431.2L721.6,431.2z"/>
</g>
<text transform="matrix(1 0 0 1 186.91 674.39)" class="st1 st2 st3">Education</text>
</svg>
