<?xml version="1.0" encoding="UTF-8"?>
<svg id="Layer_2" data-name="Layer 2" xmlns="http://www.w3.org/2000/svg" viewBox="0 0 1080 1080">
  <defs>
    <style>
      .cls-1 {
        fill: #eee;
        font-family: LostaMasta-Regular, 'Losta Masta';
        font-size: 160.46px;
      }

      .cls-2 {
        fill: #0d182e;
      }
    </style>
  </defs>
  <g>
    <path class="cls-2" d="m328.92,380.99c3.34-6.49,10.06-7.71,15.98-9.81,27.7-9.82,55.59-19.12,83.24-29.08,25.44-9.16,50.86-18.35,76.41-27.18,10.28-3.55,20.39-7.62,30.7-11.09,3.45-1.16,7.28-.71,10.81.54,18.09,6.42,36.16,12.89,54.24,19.32,13.57,4.83,27.15,9.61,40.72,14.43,14.18,5.05,28.35,10.15,42.54,15.18,20.26,7.19,40.67,13.96,60.74,21.7,4.96,1.91,6.24,5.99,6.72,10,.44,3.73-1.25,7.5-4.71,10.04-4.27,3.13-9.38,4.3-14.18,6.08-11.42,4.24-23.03,7.99-34.51,12.07-15.74,5.59-31.43,11.33-47.15,16.96-18.32,6.55-36.66,13.05-55,19.57-12.35,4.39-24.71,8.77-37.06,13.17-4,1.43-7.99,2.89-11.96,4.38-4.18,1.57-8.43,1.78-12.62.29-10.83-3.87-21.58-7.94-32.41-11.78-13.45-4.77-26.96-9.36-40.42-14.11-11.21-3.97-22.35-8.12-33.56-12.09-13.45-4.76-26.96-9.36-40.4-14.14-10.95-3.89-21.84-7.98-32.78-11.92-4.47-1.61-8.99-3.12-13.51-4.59-4.97-1.61-9.13-4.25-11.82-8.87v-9.07Z"/>
    <path class="cls-2" d="m416.1,451.74c12.14,4.43,23.91,9.14,35.94,13.01,14.09,4.54,27.74,10.3,41.93,14.56,9.51,2.85,18.81,6.5,28.01,10.27,11.65,4.77,23.2,4.78,34.77.23,18.47-7.26,37.5-12.95,56.01-20.12,16.02-6.21,32.37-11.59,48.56-17.36,1.91-.68,3.08-.68,3.02,1.92-.36,16.46-.12,32.93-.28,49.4-.12,12.17-7.13,18.63-15.86,24.51-10.25,6.91-22.01,10.68-33.61,14.07-10.78,3.16-22.05,4.91-33.33,6.43-17.29,2.32-34.59,3.49-51.95,2.93-10.74-.35-21.49-1.38-32.2-2.93-10.71-1.55-21.42-3.27-31.7-6.27-10.7-3.11-21.38-6.71-31.13-12.59-6.89-4.16-13.33-8.52-16.8-16.09-1.11-2.42-2.04-4.98-1.93-7.7.7-17.43.12-34.87.32-52.31,0-.51.11-1.01.23-1.97Z"/>
    <path class="cls-2" d="m721.56,431.22v4.75c0,32.58.05,65.16-.07,97.74-.01,3.64.87,5.95,3.87,8.5,11.85,10.04,11,28.56-1.66,38.08-1.98,1.49-2.15,2.75-2.15,4.62,0,18.56.08,37.12-.05,55.68-.04,5.89-1.89,10.78-7.86,13.66-7.28,3.51-16.73-1.73-16.77-9.84-.09-19.38-.09-38.77-.04-58.15,0-2.61-.57-4.23-2.99-5.96-13.27-9.5-12.91-31.61.5-39.74,1.96-1.19,2.51-2.66,2.5-4.9-.08-30.79,0-61.59-.15-92.38-.01-2.68.86-3.77,3.13-4.54,7.14-2.41,14.25-4.92,21.71-7.51Z"/>
  </g>
  <text class="cls-1" transform="translate(186.91 674.39)"><tspan x="0" y="0">Education</tspan></text>
</svg>