<?xml version="1.0" encoding="UTF-8"?>
<svg id="Layer_3" data-name="Layer 3" xmlns="http://www.w3.org/2000/svg" viewBox="0 0 1080 1080">
  <defs>
    <style>
      .cls-1 {
        fill: #eee;
        font-family: LostaMasta-Regular, 'Losta Masta';
        font-size: 160.46px;
      }

      .cls-2 {
        fill: #0d182e;
      }
    </style>
  </defs>
  <g>
    <path class="cls-2" d="m445.92,288.5c1.68,2.39,4.55,1.68,6.69,1.96,8.63,1.13,16.92,4.13,23.93,8.45,11.67,7.2,21.92,16.52,28.8,28.95,4.57,8.25,8.14,16.86,9.62,26.1,1.3,8.11,1.78,16.37.32,24.6-.39,2.22.01,4.15,1.91,6.04,36.7,36.54,73.32,73.16,109.85,109.87,2.03,2.04,4.14,2.23,6.41,1.87,9.17-1.47,18.27-.85,27.26,1.02,14.8,3.08,27.75,10.04,38.42,20.61,8.67,8.59,14.96,18.77,19.22,30.5,4.28,11.78,4.53,23.72,3.88,35.71-.49,8.94-3.13,17.71-7.67,25.63-3.88,6.77-12,7.06-18.36.73-11.4-11.33-22.82-22.64-34.05-34.14-2.38-2.43-3.82-2.09-5.89.08-3.78,3.96-7.71,7.78-11.6,11.64-1.88,1.87-2.23,3.21.08,5.46,11.7,11.37,23.03,23.1,34.72,34.48,6.49,6.32,5.71,15.2-3.22,19.09-5.71,2.48-11.78,3.71-17.73,5.37-6.46,1.8-12.7,1.65-19.06,1.72-11.42.11-21.95-3.43-32.05-8.51-11.4-5.73-20.57-13.94-28.23-24.17-7.64-10.19-12.28-21.58-14.5-33.89-1.33-7.37-1.6-14.95-.2-22.49.59-3.15-.06-5.92-2.77-8.53-10.81-10.4-21.3-21.13-31.9-31.74-7.91-7.91-15.82-15.82-23.73-23.73-16.87-16.86-33.77-33.69-50.56-50.63-3.14-3.17-6.34-3.63-10.72-3.07-5.78.74-11.71.44-17.64-.21-9.9-1.09-19.03-4.23-27.69-8.79-13.86-7.31-24.5-17.98-32.2-31.69-4.91-8.76-8.01-18.03-9.35-27.94-.02-.13-.37-.22-.56-.32,0-6.91,0-13.81,0-20.72.56-.11.7-.51.75-1.01.87-8.61,3.6-16.62,7.61-24.26,1.05-1.99,2.57-3.23,4.6-4,5-1.91,9.2-.27,12.72,3.21,11.77,11.64,23.45,23.36,35.09,35.12,1.77,1.79,2.9,2.18,4.83.07,3.93-4.3,8.1-8.4,12.35-12.39,1.91-1.8,2.22-2.82.12-4.88-11.74-11.5-23.33-23.14-34.89-34.82-2.7-2.73-4.69-5.85-4.17-10.08.79-6.37,5.5-8.54,10.63-10.52,6.62-2.55,13.62-3.69,20.37-5.74h18.58Z"/>
    <path class="cls-2" d="m665.97,288.5c2.81,1.24,5.04,3.19,7.2,5.36,14.94,15.03,29.74,30.2,45.03,44.87,5.67,5.44,6.12,12.36.42,18.13-12.73,12.86-25.58,25.6-38.28,38.47-1.65,1.67-2.32.59-3.34-.44-20.03-20.04-40.04-40.09-60.14-60.06-1.72-1.71-1.55-2.54.06-4.13,10.58-10.44,21.06-20.98,31.57-31.49,2.56-2.56,5.25-5.02,7.62-7.75,1.38-1.58,3.41-1.73,4.87-2.96h5Z"/>
    <path class="cls-2" d="m357.33,640c3.13-5.1,4.76-10.87,7.01-16.35,7.1-17.23,13.92-34.59,20.8-51.91.81-2.03,1.15-5.41,2.65-5.68,2.18-.39,3.55,2.66,5.19,4.28,17.04,16.95,33.98,34.01,51.07,50.9,2.32,2.29,1.68,3-.83,3.97-15.01,5.87-30.07,11.62-44.97,17.76-8.55,3.52-17.18,6.8-25.8,10.14-6.73,2.61-10.94,1.07-14.41-5.34-.14-.26-.48-.43-.72-.64,0-2.38,0-4.76,0-7.14Z"/>
    <path class="cls-2" d="m464.19,611.38c-21.32-21.32-42.6-42.61-64.07-64.09,19.53-19.46,39.11-38.91,58.59-58.45,1.76-1.77,2.65-1.76,4.4,0,19.79,19.92,39.63,39.79,59.58,59.56,1.68,1.67,1.32,2.71.26,4.15-.35.47-.8.87-1.22,1.29-19.18,19.19-38.36,38.37-57.53,57.54Z"/>
    <path class="cls-2" d="m619.25,456.31c-21.34-21.34-42.62-42.63-63.93-63.94,14.1-14.1,28.27-28.2,42.32-42.42,1.66-1.68,2.4-1.36,3.86.11,19.98,20.08,40.02,40.1,60.07,60.1,1.22,1.22,1.97,1.95.3,3.6-14.29,14.14-28.47,28.38-42.63,42.55Z"/>
  </g>
  <text class="cls-1" transform="translate(248.76 674.39)"><tspan x="0" y="0">Projects</tspan></text>
</svg>