<?xml version="1.0" encoding="utf-8"?>
<!-- Generator: Adobe Illustrator 26.0.1, SVG Export Plug-In . SVG Version: 6.00 Build 0)  -->
<svg version="1.1" id="Layer_3" xmlns="http://www.w3.org/2000/svg" xmlns:xlink="http://www.w3.org/1999/xlink" x="0px" y="0px"
	 viewBox="0 0 1080 1080" style="enable-background:new 0 0 1080 1080;" xml:space="preserve">
<style type="text/css">
	.st0{fill:#14243F;}
	.st1{fill:#EEEEEE;}
	.st2{font-family:'ArialMT';}
	.st3{font-size:160.46px;}
</style>
<g>
	<path class="st0" d="M445.9,288.5c1.7,2.4,4.5,1.7,6.7,2c8.6,1.1,16.9,4.1,23.9,8.5c11.7,7.2,21.9,16.5,28.8,29
		c4.6,8.2,8.1,16.9,9.6,26.1c1.3,8.1,1.8,16.4,0.3,24.6c-0.4,2.2,0,4.1,1.9,6c36.7,36.5,73.3,73.2,109.8,109.9c2,2,4.1,2.2,6.4,1.9
		c9.2-1.5,18.3-0.9,27.3,1c14.8,3.1,27.8,10,38.4,20.6c8.7,8.6,15,18.8,19.2,30.5c4.3,11.8,4.5,23.7,3.9,35.7
		c-0.5,8.9-3.1,17.7-7.7,25.6c-3.9,6.8-12,7.1-18.4,0.7c-11.4-11.3-22.8-22.6-34-34.1c-2.4-2.4-3.8-2.1-5.9,0.1
		c-3.8,4-7.7,7.8-11.6,11.6c-1.9,1.9-2.2,3.2,0.1,5.5c11.7,11.4,23,23.1,34.7,34.5c6.5,6.3,5.7,15.2-3.2,19.1
		c-5.7,2.5-11.8,3.7-17.7,5.4c-6.5,1.8-12.7,1.7-19.1,1.7c-11.4,0.1-22-3.4-32-8.5c-11.4-5.7-20.6-13.9-28.2-24.2
		c-7.6-10.2-12.3-21.6-14.5-33.9c-1.3-7.4-1.6-15-0.2-22.5c0.6-3.2-0.1-5.9-2.8-8.5c-10.8-10.4-21.3-21.1-31.9-31.7
		c-7.9-7.9-15.8-15.8-23.7-23.7c-16.9-16.9-33.8-33.7-50.6-50.6c-3.1-3.2-6.3-3.6-10.7-3.1c-5.8,0.7-11.7,0.4-17.6-0.2
		c-9.9-1.1-19-4.2-27.7-8.8c-13.9-7.3-24.5-18-32.2-31.7c-4.9-8.8-8-18-9.4-27.9c0-0.1-0.4-0.2-0.6-0.3c0-6.9,0-13.8,0-20.7
		c0.6-0.1,0.7-0.5,0.8-1c0.9-8.6,3.6-16.6,7.6-24.3c1-2,2.6-3.2,4.6-4c5-1.9,9.2-0.3,12.7,3.2c11.8,11.6,23.5,23.4,35.1,35.1
		c1.8,1.8,2.9,2.2,4.8,0.1c3.9-4.3,8.1-8.4,12.4-12.4c1.9-1.8,2.2-2.8,0.1-4.9c-11.7-11.5-23.3-23.1-34.9-34.8
		c-2.7-2.7-4.7-5.9-4.2-10.1c0.8-6.4,5.5-8.5,10.6-10.5c6.6-2.5,13.6-3.7,20.4-5.7L445.9,288.5L445.9,288.5z"/>
	<path class="st0" d="M666,288.5c2.8,1.2,5,3.2,7.2,5.4c14.9,15,29.7,30.2,45,44.9c5.7,5.4,6.1,12.4,0.4,18.1
		c-12.7,12.9-25.6,25.6-38.3,38.5c-1.7,1.7-2.3,0.6-3.3-0.4c-20-20-40-40.1-60.1-60.1c-1.7-1.7-1.5-2.5,0.1-4.1
		c10.6-10.4,21.1-21,31.6-31.5c2.6-2.6,5.2-5,7.6-7.8c1.4-1.6,3.4-1.7,4.9-3H666L666,288.5z"/>
	<path class="st0" d="M357.3,640c3.1-5.1,4.8-10.9,7-16.3c7.1-17.2,13.9-34.6,20.8-51.9c0.8-2,1.1-5.4,2.6-5.7
		c2.2-0.4,3.5,2.7,5.2,4.3c17,17,34,34,51.1,50.9c2.3,2.3,1.7,3-0.8,4c-15,5.9-30.1,11.6-45,17.8c-8.5,3.5-17.2,6.8-25.8,10.1
		c-6.7,2.6-10.9,1.1-14.4-5.3c-0.1-0.3-0.5-0.4-0.7-0.6C357.3,644.8,357.3,642.4,357.3,640L357.3,640z"/>
	<path class="st0" d="M464.2,611.4c-21.3-21.3-42.6-42.6-64.1-64.1c19.5-19.5,39.1-38.9,58.6-58.5c1.8-1.8,2.6-1.8,4.4,0
		c19.8,19.9,39.6,39.8,59.6,59.6c1.7,1.7,1.3,2.7,0.3,4.2c-0.3,0.5-0.8,0.9-1.2,1.3C502.6,573,483.4,592.2,464.2,611.4L464.2,611.4z
		"/>
	<path class="st0" d="M619.2,456.3c-21.3-21.3-42.6-42.6-63.9-63.9c14.1-14.1,28.3-28.2,42.3-42.4c1.7-1.7,2.4-1.4,3.9,0.1
		c20,20.1,40,40.1,60.1,60.1c1.2,1.2,2,2,0.3,3.6C647.6,427.9,633.4,442.1,619.2,456.3L619.2,456.3z"/>
</g>
<text transform="matrix(1 0 0 1 248.76 674.39)" class="st1 st2 st3">Projects</text>
</svg>
