<?xml version="1.0" encoding="UTF-8"?>
<svg id="Layer_4" data-name="Layer 4" xmlns="http://www.w3.org/2000/svg" viewBox="0 0 1080 1080">
  <defs>
    <style>
      .cls-1 {
        fill: #eee;
        font-family: LostaMasta-Regular, 'Losta Masta';
        font-size: 160.46px;
      }

      .cls-2 {
        fill: #0d182e;
      }
    </style>
  </defs>
  <g>
    <path class="cls-2" d="m582.02,275.28c13-.63,20.81,6.12,27.92,14.1,6.4,7.18,12.66,14.48,19.07,21.65,13.04,14.59,26.11,29.15,39.22,43.68,9.35,10.36,18.83,20.6,28.18,30.95,8.56,9.48,9.94,22.47,3.21,33.46-3.51,5.72-8.51,10.42-13.18,15.3-4.75,4.96-9.1,10.3-13.68,15.43-2.99,3.36-6.08,6.63-9.11,9.94-6.52,7.13-13.2,14.12-19.51,21.44-4.76,5.52-9.62,10.93-14.55,16.3-7.33,8-14.38,16.25-21.59,24.35-6.67,7.49-14.4,13.03-25,12.89-12.61-.16-24.6-11.95-26.4-23.98-1.63-10.88,3.05-18.86,9.65-26.28,9.45-10.63,19.27-20.94,28.73-31.56,11.03-12.38,21.88-24.91,33.36-36.87.5-.52.94-1.16,1.2-1.82,1.72-4.37,9.81-5.38,7.52-11.07-1.77-4.38-6.51-7.56-9.88-11.31-12.96-14.44-25.87-28.92-38.86-43.34-6.66-7.39-13.26-14.84-20.21-21.93-6.31-6.43-11.54-13.56-11.98-22.64-.26-5.45,1.1-10.82,4.81-15.98,4.2-5.83,9.24-9.29,15.46-11.97,2.33-1,4.61-.68,5.61-.75Z"/>
    <path class="cls-2" d="m495.82,371.17c10.95-.54,19.21,5.17,24.23,13.56,5.27,8.81,5.14,18.92-.7,28.37-3.47,5.62-8.28,9.99-12.54,14.84-12.23,13.95-24.98,27.44-37.36,41.25-8.32,9.28-16.37,18.78-25.05,27.73-1.75,1.81-3.21,3.34-.58,6.12,6.71,7.09,12.94,14.63,19.45,21.92,12.93,14.48,25.85,28.98,38.92,43.33,5.39,5.92,11.32,11.42,15.93,17.96,10.76,15.23,5.04,32.46-9.76,41.38-10.29,6.2-23.54,3.88-31.95-5.18-13.39-14.42-26.37-29.23-39.54-43.87-5.85-6.5-11.73-12.97-17.61-19.45-12.06-13.28-24.42-26.31-36.11-39.91-9.91-11.52-9.33-27.22,1.45-38.96,14.94-16.29,29.75-32.71,44.58-49.1,10.64-11.76,21.29-23.51,31.78-35.4,5.55-6.29,11.27-12.38,17.31-18.21,5-4.83,11.11-5.93,17.54-6.38Z"/>
  </g>
  <text class="cls-1" transform="translate(224.05 674.39)"><tspan x="0" y="0">My Skills</tspan></text>
</svg>