<?xml version="1.0" encoding="utf-8"?>
<!-- Generator: Adobe Illustrator 26.0.1, SVG Export Plug-In . SVG Version: 6.00 Build 0)  -->
<svg version="1.1" id="Layer_4" xmlns="http://www.w3.org/2000/svg" xmlns:xlink="http://www.w3.org/1999/xlink" x="0px" y="0px"
	 viewBox="0 0 1080 1080" style="enable-background:new 0 0 1080 1080;" xml:space="preserve">
<style type="text/css">
	.st0{fill:#14243F;}
	.st1{fill:#EEEEEE;}
	.st2{font-family:'ArialMT';}
	.st3{font-size:160.46px;}
</style>
<g>
	<path class="st0" d="M582,275.3c13-0.6,20.8,6.1,27.9,14.1c6.4,7.2,12.7,14.5,19.1,21.6c13,14.6,26.1,29.1,39.2,43.7
		c9.3,10.4,18.8,20.6,28.2,31c8.6,9.5,9.9,22.5,3.2,33.5c-3.5,5.7-8.5,10.4-13.2,15.3c-4.8,5-9.1,10.3-13.7,15.4
		c-3,3.4-6.1,6.6-9.1,9.9c-6.5,7.1-13.2,14.1-19.5,21.4c-4.8,5.5-9.6,10.9-14.5,16.3c-7.3,8-14.4,16.2-21.6,24.3
		c-6.7,7.5-14.4,13-25,12.9c-12.6-0.2-24.6-12-26.4-24c-1.6-10.9,3-18.9,9.7-26.3c9.5-10.6,19.3-20.9,28.7-31.6
		c11-12.4,21.9-24.9,33.4-36.9c0.5-0.5,0.9-1.2,1.2-1.8c1.7-4.4,9.8-5.4,7.5-11.1c-1.8-4.4-6.5-7.6-9.9-11.3
		c-13-14.4-25.9-28.9-38.9-43.3c-6.7-7.4-13.3-14.8-20.2-21.9c-6.3-6.4-11.5-13.6-12-22.6c-0.3-5.5,1.1-10.8,4.8-16
		c4.2-5.8,9.2-9.3,15.5-12C578.7,275,581,275.3,582,275.3L582,275.3z"/>
	<path class="st0" d="M495.8,371.2c11-0.5,19.2,5.2,24.2,13.6c5.3,8.8,5.1,18.9-0.7,28.4c-3.5,5.6-8.3,10-12.5,14.8
		c-12.2,14-25,27.4-37.4,41.2c-8.3,9.3-16.4,18.8-25,27.7c-1.8,1.8-3.2,3.3-0.6,6.1c6.7,7.1,12.9,14.6,19.5,21.9
		c12.9,14.5,25.9,29,38.9,43.3c5.4,5.9,11.3,11.4,15.9,18c10.8,15.2,5,32.5-9.8,41.4c-10.3,6.2-23.5,3.9-32-5.2
		C463,608,450,593.2,436.9,578.6c-5.9-6.5-11.7-13-17.6-19.5c-12.1-13.3-24.4-26.3-36.1-39.9c-9.9-11.5-9.3-27.2,1.5-39
		c14.9-16.3,29.8-32.7,44.6-49.1c10.6-11.8,21.3-23.5,31.8-35.4c5.5-6.3,11.3-12.4,17.3-18.2C483.3,372.7,489.4,371.6,495.8,371.2
		L495.8,371.2z"/>
</g>
<text transform="matrix(1 0 0 1 224.05 674.39)" class="st1 st2 st3">My Skills</text>
</svg>
