<?xml version="1.0" encoding="UTF-8"?>
<svg id="Layer_6" data-name="Layer 6" xmlns="http://www.w3.org/2000/svg" viewBox="0 0 1080 1080">
  <defs>
    <style>
      .cls-1 {
        fill: #eee;
        font-family: LostaMasta-Regular, 'Losta Masta';
        font-size: 160.46px;
      }

      .cls-2 {
        fill: #0d182e;
      }
    </style>
  </defs>
  <path class="cls-2" d="m724.76,444.01c-.2-4.05-1.44-7.81-2.92-11.52-4.83-12.2-12.52-22.01-23.84-28.8-10.27-6.16-21.59-8.56-33.41-8.67-16-.14-32-.03-48-.05-3.62,0-8.51,1.26-10.5-.57-2.28-2.11-.7-7.05-.68-10.76.08-11.97-1.38-23.43-9.38-33.12-3.14-3.79-6.89-7.17-10.97-9.41-6.6-3.64-14.24-4.87-21.8-4.97-16.24-.2-32.49.03-48.73-.12-4.11-.03-7.93,1.24-11.78,2.12-8.46,1.94-14.97,7.03-20.39,13.72-4.11,5.09-6.62,11.05-7.46,17.22-.99,7.29-.46,14.8-.27,22.2.06,2.9-.49,3.83-3.64,3.8-19.64-.17-39.28-.16-58.92-.04-5.91.04-11.92.77-17.49,2.58-11.49,3.72-21.51,9.98-28.8,19.97-6.94,9.49-11.95,19.76-11.95,31.81-.01,30.86-.01,106.07-.01,136.93,0,8.03,6.51,14.53,14.53,14.53h0c8.04,0,14.55-6.52,14.54-14.56-.01-8.68-.03-61.7-.06-70.38-.01-3.15.66-3.93,3.88-3.93,44.49.13,88.97.09,133.46.09,1.46,0,2.92.08,4.36,0,1.28-.07,1.68.43,1.67,1.68-.05,5.58.36,11.19-.16,16.72-.39,4.15.27,7.76,2.29,11.28,2.88,4.98,9.75,8,15.36,6.66,5.25-1.25,10.19-7.24,10.95-12.34,1.04-6.98.52-13.97.55-20.93,0-2.59.68-3.15,3.19-3.15,44.85.09,89.7.12,134.55-.03,3.61-.01,4.32,1,4.23,4.4-.25,9.31-.35,63,.08,72.29.3,6.22,7.08,12.18,13.26,12.18h.31c6.87-.21,11.73-3.58,13.97-10.3.29-.83.9-.6,1.46-.66v-143.26c-.91-.64-1.39-1.54-1.44-2.62Zm-221.13-67.72c.03-6.62,4.01-11.01,10.7-11.08,16.61-.16,33.22-.31,49.8.05,8.26.2,11.28,3.72,12.06,12.31.46,4.92-.03,9.93.14,14.89.07,2.17-.73,2.56-2.69,2.55-11.27-.08-22.54-.04-33.81-.04s-22.3-.07-33.44.05c-2.2.03-2.92-.44-2.82-2.76.2-5.32.05-10.66.07-15.98Zm189.44,106.76c-51.02-.13-102.04-.09-153.06-.09s-102.29-.03-153.42.08c-2.94,0-3.87-.56-3.79-3.68.25-8.95.6-17.96-.03-26.89-.69-9.64,8.45-23.4,19.08-26.42,4.3-1.21,8.62-1.87,12.91-1.87,83.26-.13,166.52-.1,249.76-.09,9.89,0,18.7,2.63,25.34,10.56,3.89,4.66,5.92,9.9,6.61,16,1.05,9.42.09,18.83.61,28.23.18,3.19-.57,4.2-4.02,4.19Z"/>
  <text class="cls-1" transform="translate(337.98 674.39)"><tspan x="0" y="0">Work</tspan></text>
</svg>