<?xml version="1.0" encoding="utf-8"?>
<!-- Generator: Adobe Illustrator 26.0.1, SVG Export Plug-In . SVG Version: 6.00 Build 0)  -->
<svg version="1.1" id="Layer_6" xmlns="http://www.w3.org/2000/svg" xmlns:xlink="http://www.w3.org/1999/xlink" x="0px" y="0px"
	 viewBox="0 0 1080 1080" style="enable-background:new 0 0 1080 1080;" xml:space="preserve">
<style type="text/css">
	.st0{fill:#14243F;}
	.st1{fill:#EEEEEE;}
	.st2{font-family:'ArialMT';}
	.st3{font-size:160.46px;}
</style>
<path class="st0" d="M724.8,444c-0.2-4-1.4-7.8-2.9-11.5c-4.8-12.2-12.5-22-23.8-28.8c-10.3-6.2-21.6-8.6-33.4-8.7
	c-16-0.1-32,0-48,0c-3.6,0-8.5,1.3-10.5-0.6c-2.3-2.1-0.7-7-0.7-10.8c0.1-12-1.4-23.4-9.4-33.1c-3.1-3.8-6.9-7.2-11-9.4
	c-6.6-3.6-14.2-4.9-21.8-5c-16.2-0.2-32.5,0-48.7-0.1c-4.1,0-7.9,1.2-11.8,2.1c-8.5,1.9-15,7-20.4,13.7c-4.1,5.1-6.6,11-7.5,17.2
	c-1,7.3-0.5,14.8-0.3,22.2c0.1,2.9-0.5,3.8-3.6,3.8c-19.6-0.2-39.3-0.2-58.9,0c-5.9,0-11.9,0.8-17.5,2.6c-11.5,3.7-21.5,10-28.8,20
	c-6.9,9.5-12,19.8-12,31.8c0,30.9,0,106.1,0,136.9c0,8,6.5,14.5,14.5,14.5l0,0c8,0,14.5-6.5,14.5-14.6c0-8.7,0-61.7-0.1-70.4
	c0-3.2,0.7-3.9,3.9-3.9c44.5,0.1,89,0.1,133.5,0.1c1.5,0,2.9,0.1,4.4,0c1.3-0.1,1.7,0.4,1.7,1.7c0,5.6,0.4,11.2-0.2,16.7
	c-0.4,4.2,0.3,7.8,2.3,11.3c2.9,5,9.8,8,15.4,6.7c5.2-1.2,10.2-7.2,11-12.3c1-7,0.5-14,0.5-20.9c0-2.6,0.7-3.1,3.2-3.1
	c44.8,0.1,89.7,0.1,134.5,0c3.6,0,4.3,1,4.2,4.4c-0.2,9.3-0.3,63,0.1,72.3c0.3,6.2,7.1,12.2,13.3,12.2h0.3c6.9-0.2,11.7-3.6,14-10.3
	c0.3-0.8,0.9-0.6,1.5-0.7V446.6C725.3,446,724.9,445.1,724.8,444L724.8,444z M503.6,376.3c0-6.6,4-11,10.7-11.1
	c16.6-0.2,33.2-0.3,49.8,0c8.3,0.2,11.3,3.7,12.1,12.3c0.5,4.9,0,9.9,0.1,14.9c0.1,2.2-0.7,2.6-2.7,2.5c-11.3-0.1-22.5,0-33.8,0
	s-22.3-0.1-33.4,0c-2.2,0-2.9-0.4-2.8-2.8C503.8,386.9,503.6,381.6,503.6,376.3L503.6,376.3z M693.1,483.1
	c-51-0.1-102-0.1-153.1-0.1s-102.3,0-153.4,0.1c-2.9,0-3.9-0.6-3.8-3.7c0.2-9,0.6-18,0-26.9c-0.7-9.6,8.5-23.4,19.1-26.4
	c4.3-1.2,8.6-1.9,12.9-1.9c83.3-0.1,166.5-0.1,249.8-0.1c9.9,0,18.7,2.6,25.3,10.6c3.9,4.7,5.9,9.9,6.6,16c1,9.4,0.1,18.8,0.6,28.2
	C697.3,482.1,696.5,483.1,693.1,483.1L693.1,483.1z"/>
<text transform="matrix(1 0 0 1 337.98 674.39)" class="st1 st2 st3">Work</text>
</svg>
