<svg xmlns="http://www.w3.org/2000/svg" viewBox="0 0 800 800"><defs><style>.a{fill:#222;}.b{fill:#f2f2f2;}.c{fill:#6096ec;}</style></defs><title>icon</title><rect class="a" width="800" height="800" rx="49.86" ry="49.86"/><path class="b" d="M101.77,300.08l127.56,80.13v22.72L102.17,482.66l-17.94-28.3,103.25-63L84.23,328Z"/><path class="b" d="M306.26,233.11h35.88V342.34A81.16,81.16,0,0,1,401.94,316c47.84,0,91.29,39.07,91.29,106.44,0,66.17-46.64,110.42-93.68,110.42-23.92,0-46.24-10-59.8-21.92V528.1H306.26Zm87.7,114c-22.72,0-42.26,14-51.82,27.11V485A78.33,78.33,0,0,0,390,501c38.67,0,66.57-30.69,66.57-77.33C456.55,375.82,428.25,347.12,394,347.12Z"/><rect class="c" x="552.32" y="211.34" width="132.88" height="345.48" rx="1" ry="1"/></svg>